<mxfile host="app.diagrams.net" agent="Mozilla/5.0 (Windows NT 10.0; Win64; x64) AppleWebKit/537.36 (KHTML, like Gecko) Chrome/141.0.0.0 Safari/537.36" version="28.2.7">
  <diagram name="Página-1" id="pLyITTNkRjiTDKeTJsKQ">
    <mxGraphModel dx="703" dy="294" grid="1" gridSize="10" guides="1" tooltips="1" connect="1" arrows="1" fold="1" page="1" pageScale="1" pageWidth="827" pageHeight="1169" math="0" shadow="0">
      <root>
        <mxCell id="0" />
        <mxCell id="1" parent="0" />
        <mxCell id="CYaQUsnu2t1nLMdqTGqx-3" value="" style="edgeStyle=orthogonalEdgeStyle;rounded=0;orthogonalLoop=1;jettySize=auto;html=1;" edge="1" parent="1" source="CYaQUsnu2t1nLMdqTGqx-1" target="CYaQUsnu2t1nLMdqTGqx-2">
          <mxGeometry relative="1" as="geometry" />
        </mxCell>
        <mxCell id="CYaQUsnu2t1nLMdqTGqx-1" value="inicio" style="strokeWidth=2;html=1;shape=mxgraph.flowchart.terminator;whiteSpace=wrap;" vertex="1" parent="1">
          <mxGeometry x="200" y="20" width="100" height="60" as="geometry" />
        </mxCell>
        <mxCell id="CYaQUsnu2t1nLMdqTGqx-5" value="" style="edgeStyle=orthogonalEdgeStyle;rounded=0;orthogonalLoop=1;jettySize=auto;html=1;" edge="1" parent="1" source="CYaQUsnu2t1nLMdqTGqx-2" target="CYaQUsnu2t1nLMdqTGqx-4">
          <mxGeometry relative="1" as="geometry" />
        </mxCell>
        <mxCell id="CYaQUsnu2t1nLMdqTGqx-2" value="inteiro idade" style="rounded=1;whiteSpace=wrap;html=1;absoluteArcSize=1;arcSize=14;strokeWidth=2;" vertex="1" parent="1">
          <mxGeometry x="160" y="110" width="180" height="50" as="geometry" />
        </mxCell>
        <mxCell id="CYaQUsnu2t1nLMdqTGqx-4" value="&quot;Digite sua idade: &quot;" style="strokeWidth=2;html=1;shape=mxgraph.flowchart.display;whiteSpace=wrap;" vertex="1" parent="1">
          <mxGeometry x="160" y="200" width="180" height="80" as="geometry" />
        </mxCell>
        <mxCell id="CYaQUsnu2t1nLMdqTGqx-9" value="" style="edgeStyle=orthogonalEdgeStyle;rounded=0;orthogonalLoop=1;jettySize=auto;html=1;" edge="1" parent="1" source="CYaQUsnu2t1nLMdqTGqx-6" target="CYaQUsnu2t1nLMdqTGqx-8">
          <mxGeometry relative="1" as="geometry" />
        </mxCell>
        <mxCell id="CYaQUsnu2t1nLMdqTGqx-6" value="idade" style="html=1;strokeWidth=2;shape=manualInput;whiteSpace=wrap;rounded=1;size=26;arcSize=11;" vertex="1" parent="1">
          <mxGeometry x="192" y="300" width="125" height="60" as="geometry" />
        </mxCell>
        <mxCell id="CYaQUsnu2t1nLMdqTGqx-7" style="edgeStyle=orthogonalEdgeStyle;rounded=0;orthogonalLoop=1;jettySize=auto;html=1;entryX=0.463;entryY=0.263;entryDx=0;entryDy=0;entryPerimeter=0;" edge="1" parent="1" source="CYaQUsnu2t1nLMdqTGqx-4" target="CYaQUsnu2t1nLMdqTGqx-6">
          <mxGeometry relative="1" as="geometry" />
        </mxCell>
        <mxCell id="CYaQUsnu2t1nLMdqTGqx-8" value="idade &amp;gt;= 18" style="strokeWidth=2;html=1;shape=mxgraph.flowchart.decision;whiteSpace=wrap;" vertex="1" parent="1">
          <mxGeometry x="195" y="400" width="120" height="100" as="geometry" />
        </mxCell>
        <mxCell id="CYaQUsnu2t1nLMdqTGqx-10" value="&quot;Preencha o formulário de matrícula.&quot;" style="strokeWidth=2;html=1;shape=mxgraph.flowchart.display;whiteSpace=wrap;" vertex="1" parent="1">
          <mxGeometry x="60" y="520" width="140" height="75" as="geometry" />
        </mxCell>
        <mxCell id="CYaQUsnu2t1nLMdqTGqx-11" style="edgeStyle=orthogonalEdgeStyle;rounded=0;orthogonalLoop=1;jettySize=auto;html=1;entryX=0.5;entryY=0;entryDx=0;entryDy=0;entryPerimeter=0;" edge="1" parent="1" source="CYaQUsnu2t1nLMdqTGqx-8" target="CYaQUsnu2t1nLMdqTGqx-10">
          <mxGeometry relative="1" as="geometry">
            <Array as="points">
              <mxPoint x="130" y="450" />
            </Array>
          </mxGeometry>
        </mxCell>
        <mxCell id="CYaQUsnu2t1nLMdqTGqx-12" value="&quot;Peça ao seus pais ou responsável para preencher o formulário de matrícula.&quot;" style="strokeWidth=2;html=1;shape=mxgraph.flowchart.display;whiteSpace=wrap;" vertex="1" parent="1">
          <mxGeometry x="300" y="507.5" width="170" height="100" as="geometry" />
        </mxCell>
        <mxCell id="CYaQUsnu2t1nLMdqTGqx-13" style="edgeStyle=orthogonalEdgeStyle;rounded=0;orthogonalLoop=1;jettySize=auto;html=1;entryX=0.576;entryY=-0.008;entryDx=0;entryDy=0;entryPerimeter=0;" edge="1" parent="1" source="CYaQUsnu2t1nLMdqTGqx-8" target="CYaQUsnu2t1nLMdqTGqx-12">
          <mxGeometry relative="1" as="geometry">
            <Array as="points">
              <mxPoint x="398" y="450" />
            </Array>
          </mxGeometry>
        </mxCell>
        <mxCell id="CYaQUsnu2t1nLMdqTGqx-14" value="verdadeiro" style="text;html=1;whiteSpace=wrap;strokeColor=none;fillColor=none;align=center;verticalAlign=middle;rounded=0;" vertex="1" parent="1">
          <mxGeometry x="130" y="420" width="60" height="30" as="geometry" />
        </mxCell>
        <mxCell id="CYaQUsnu2t1nLMdqTGqx-15" value="falso" style="text;html=1;whiteSpace=wrap;strokeColor=none;fillColor=none;align=center;verticalAlign=middle;rounded=0;" vertex="1" parent="1">
          <mxGeometry x="330" y="420" width="60" height="30" as="geometry" />
        </mxCell>
        <mxCell id="CYaQUsnu2t1nLMdqTGqx-16" value="fim" style="strokeWidth=2;html=1;shape=mxgraph.flowchart.terminator;whiteSpace=wrap;" vertex="1" parent="1">
          <mxGeometry x="204.5" y="620" width="100" height="50" as="geometry" />
        </mxCell>
        <mxCell id="CYaQUsnu2t1nLMdqTGqx-17" style="edgeStyle=orthogonalEdgeStyle;rounded=0;orthogonalLoop=1;jettySize=auto;html=1;entryX=0;entryY=0.5;entryDx=0;entryDy=0;entryPerimeter=0;" edge="1" parent="1" source="CYaQUsnu2t1nLMdqTGqx-10" target="CYaQUsnu2t1nLMdqTGqx-16">
          <mxGeometry relative="1" as="geometry">
            <Array as="points">
              <mxPoint x="130" y="645" />
            </Array>
          </mxGeometry>
        </mxCell>
        <mxCell id="CYaQUsnu2t1nLMdqTGqx-18" style="edgeStyle=orthogonalEdgeStyle;rounded=0;orthogonalLoop=1;jettySize=auto;html=1;entryX=1;entryY=0.5;entryDx=0;entryDy=0;entryPerimeter=0;" edge="1" parent="1" source="CYaQUsnu2t1nLMdqTGqx-12" target="CYaQUsnu2t1nLMdqTGqx-16">
          <mxGeometry relative="1" as="geometry" />
        </mxCell>
      </root>
    </mxGraphModel>
  </diagram>
</mxfile>
